<svg xmlns="http://www.w3.org/2000/svg" viewBox="0 0 1024 1024">
  <defs>
    <linearGradient id="g" x1="0" x2="1" y1="0" y2="1">
      <stop offset="0%" stop-color="#1e3a8a"/>
      <stop offset="100%" stop-color="#06b6d4"/>
    </linearGradient>
    <filter id="shadow" x="-20%" y="-20%" width="140%" height="140%">
      <feDropShadow dx="0" dy="8" stdDeviation="18" flood-color="#000" flood-opacity="0.25"/>
    </filter>
  </defs>
  <rect width="100%" height="100%" rx="160" fill="url(#g)"/>
  <g filter="url(#shadow)">
    <path d="M320 250c0-55 45-100 100-100h184c55 0 100 45 100 100v524c0 55-45 100-100 100H420c-55 0-100-45-100-100V250z" fill="#fff" opacity="0.08"/>
  </g>
  <g transform="translate(192,160)">
    <circle cx="320" cy="240" r="220" fill="#fff" opacity="0.06"/>
    <g transform="translate(160,80)">
      <rect x="0" y="0" width="320" height="320" rx="48" fill="#fff"/>
      <path d="M48 96h224v32H48zM48 160h224v32H48zM48 224h160v32H48z" fill="#1e3a8a"/>
      <text x="36" y="60" font-family="Segoe UI, Roboto, Arial" font-size="48" fill="#06b6d4" font-weight="700">SK</text>
    </g>
  </g>
</svg>